<?xml version="1.0" encoding="UTF-8" standalone="no"?>
<svg
   xmlns:dc="http://purl.org/dc/elements/1.1/"
   xmlns:cc="http://creativecommons.org/ns#"
   xmlns:rdf="http://www.w3.org/1999/02/22-rdf-syntax-ns#"
   xmlns:svg="http://www.w3.org/2000/svg"
   xmlns="http://www.w3.org/2000/svg"
   xmlns:sodipodi="http://sodipodi.sourceforge.net/DTD/sodipodi-0.dtd"
   xmlns:inkscape="http://www.inkscape.org/namespaces/inkscape"
   width="100"
   height="100"
   version="1.1"
   id="svg58"
   sodipodi:docname="icon.svg"
   inkscape:version="0.92.4 (5da689c313, 2019-01-14)">
  <defs
     id="defs62" />
  <sodipodi:namedview
     pagecolor="#ffffff"
     bordercolor="#666666"
     borderopacity="1"
     objecttolerance="10"
     gridtolerance="10"
     guidetolerance="10"
     inkscape:pageopacity="0"
     inkscape:pageshadow="2"
     inkscape:window-width="1362"
     inkscape:window-height="842"
     id="namedview60"
     showgrid="false"
     inkscape:zoom="2.2211765"
     inkscape:cx="53.125"
     inkscape:cy="89.141951"
     inkscape:window-x="0"
     inkscape:window-y="0"
     inkscape:window-maximized="1"
     inkscape:current-layer="svg58" />
  <metadata
     id="metadata48">
    <rdf:RDF>
      <cc:Work
         rdf:about="">
        <dc:format>image/svg+xml</dc:format>
        <dc:type
           rdf:resource="http://purl.org/dc/dcmitype/StillImage" />
        <dc:title />
      </cc:Work>
    </rdf:RDF>
  </metadata>
  <rect
     style="fill:#ff6600;stroke:none;stroke-width:0.93721366"
     id="rect3770"
     width="100"
     height="100"
     x="0"
     y="1.9073486e-06"
     ry="13.506355" />
  <g
     id="g843"
     transform="matrix(4.2857143,0,0,4.2857143,20,15.714285)">
    <path
       style="fill:#ffffff"
       id="path61"
       d="M 10,0 V 15 C 10,15 0,15 0,15 0,15 0,0 0,0 Z M 9,1 H 1 v 13 c 0,0 8,0 8,0 z M 2.5,4 c 0,0 5,0 5,0 0.5,0 0.5,1 0,1 0,0 -5,0 -5,0 C 2,5 2,4 2.5,4 Z m 0,2 c 0,0 5,0 5,0 0.5,0 0.5,1 0,1 0,0 -5,0 -5,0 C 2,7 2,6 2.5,6 Z m 0,2 c 0,0 5,0 5,0 0.5,0 0.5,1 0,1 0,0 -5,0 -5,0 C 2,9 2,8 2.5,8 Z m 0,2 c 0,0 5,0 5,0 0.5,0 0.5,1 0,1 0,0 -5,0 -5,0 C 2,11 2,10 2.5,10 Z"
       inkscape:connector-curvature="0" />
    <path
       style="fill:#ffffff"
       id="path63"
       d="m 11,13 c 0.5,0.5 2.5,0.5 3,0 0,0 -1,2 -1.5,2 C 12,15 11,13 11,13 Z M 11,3 c 0,0.5 3,0.5 3,0 0,0 0,9 0,9 0,0.5 -3,0.5 -3,0 0,0 0,-9 0,-9 z M 12.5,0 C 11,0 11,0.5 11,1 c 0,0 0,1 0,1 0,0.5 3,0.5 3,0 0,0 0,-1 0,-1 0,-0.5 0,-1 -1.5,-1 z"
       inkscape:connector-curvature="0" />
  </g>
</svg>
