<?xml version="1.0" encoding="UTF-8"?>
<!-- Created with Inkscape (http://www.inkscape.org/) -->
<svg width="100" height="100" version="1.1" viewBox="0 0 26.458 26.458" xmlns="http://www.w3.org/2000/svg" xmlns:cc="http://creativecommons.org/ns#" xmlns:dc="http://purl.org/dc/elements/1.1/" xmlns:rdf="http://www.w3.org/1999/02/22-rdf-syntax-ns#">
 <metadata>
  <rdf:RDF>
   <cc:Work rdf:about="">
    <dc:format>image/svg+xml</dc:format>
    <dc:type rdf:resource="http://purl.org/dc/dcmitype/StillImage"/>
    <dc:title/>
   </cc:Work>
  </rdf:RDF>
 </metadata>
 <g transform="translate(0 -270.54)">
  <rect y="270.54" width="26.458" height="26.458" fill="#f60"/>
  <text x="5.8712549" y="291.55759" fill="#000000" font-family="sans-serif" font-size="10.646px" letter-spacing="0px" stroke-width=".26614" word-spacing="0px" style="line-height:1.25" xml:space="preserve"><tspan x="5.8712549" y="291.55759" fill="#ffffff" stroke-width=".26614">7A</tspan></text>
  <g transform="matrix(.56696 0 0 .56696 9.2604 273.94)" fill="#fff">
   <path d="m10 0v15h-10v-15zm-1 1h-8v13h8zm-6.5 3h5c0.5 0 0.5 1 0 1h-5c-0.5 0-0.5-1 0-1zm0 2h5c0.5 0 0.5 1 0 1h-5c-0.5 0-0.5-1 0-1zm0 2h5c0.5 0 0.5 1 0 1h-5c-0.5 0-0.5-1 0-1zm0 2h5c0.5 0 0.5 1 0 1h-5c-0.5 0-0.5-1 0-1z"/>
   <path d="m11 13c0.5 0.5 2.5 0.5 3 0 0 0-1 2-1.5 2s-1.5-2-1.5-2zm0-10c0 0.5 3 0.5 3 0v9c0 0.5-3 0.5-3 0v-9zm1.5-3c-1.5 0-1.5 0.5-1.5 1v1c0 0.5 3 0.5 3 0v-1c0-0.5 0-1-1.5-1z"/>
  </g>
 </g>
</svg>
