<?xml version="1.0" encoding="UTF-8"?>
<svg width="15" height="15" version="1.1" viewBox="0 0 15 15" xmlns="http://www.w3.org/2000/svg" xmlns:cc="http://creativecommons.org/ns#" xmlns:dc="http://purl.org/dc/elements/1.1/" xmlns:rdf="http://www.w3.org/1999/02/22-rdf-syntax-ns#">
 <metadata>
  <rdf:RDF>
   <cc:Work rdf:about="">
    <dc:format>image/svg+xml</dc:format>
    <dc:type rdf:resource="http://purl.org/dc/dcmitype/StillImage"/>
    <dc:title/>
   </cc:Work>
  </rdf:RDF>
 </metadata>
 <path d="m10 0v15h-10v-15h10zm-1 1h-8v13h8v-13zm-6.5 3h5c0.5 0 0.5 1 0 1h-5c-0.5 0-0.5-1 0-1zm0 2h5c0.5 0 0.5 1 0 1h-5c-0.5 0-0.5-1 0-1zm0 2h5c0.5 0 0.5 1 0 1h-5c-0.5 0-0.5-1 0-1zm0 2h5c0.5 0 0.5 1 0 1h-5c-0.5 0-0.5-1 0-1z" fill="#fff"/>
 <path d="m11 13c0.5 0.5 2.5 0.5 3 0 0 0-1 2-1.5 2s-1.5-2-1.5-2zm0-10c0 0.5 3 0.5 3 0v9c0 0.5-3 0.5-3 0v-9zm1.5-3c-1.5 0-1.5 0.5-1.5 1v1c0 0.5 3 0.5 3 0v-1c0-0.5 0-1-1.5-1z" fill="#fff"/>
</svg>
